<?xml version="1.0" encoding="UTF-8" standalone="no"?>
<!-- Created with Inkscape (http://www.inkscape.org/) -->

<svg
   xmlns:dc="http://purl.org/dc/elements/1.1/"
   xmlns:cc="http://creativecommons.org/ns#"
   xmlns:rdf="http://www.w3.org/1999/02/22-rdf-syntax-ns#"
   xmlns:svg="http://www.w3.org/2000/svg"
   xmlns="http://www.w3.org/2000/svg"
   xmlns:sodipodi="http://sodipodi.sourceforge.net/DTD/sodipodi-0.dtd"
   xmlns:inkscape="http://www.inkscape.org/namespaces/inkscape"
   width="184"
   height="48"
   viewBox="0 0 48.683332 12.7"
   version="1.1"
   id="svg8"
   inkscape:version="0.92.2 5c3e80d, 2017-08-06"
   sodipodi:docname="ubucon_de_logo.svg">
  <defs
     id="defs2" />
  <sodipodi:namedview
     id="base"
     pagecolor="#e95420"
     bordercolor="#666666"
     borderopacity="1.0"
     inkscape:pageopacity="0"
     inkscape:pageshadow="2"
     inkscape:zoom="2.8"
     inkscape:cx="43.357143"
     inkscape:cy="30.963179"
     inkscape:document-units="mm"
     inkscape:current-layer="g4541"
     showgrid="false"
     units="px"
     inkscape:window-width="1619"
     inkscape:window-height="986"
     inkscape:window-x="61"
     inkscape:window-y="27"
     inkscape:window-maximized="1" />
  <metadata
     id="metadata5">
    <rdf:RDF>
      <cc:Work
         rdf:about="">
        <dc:format>image/svg+xml</dc:format>
        <dc:type
           rdf:resource="http://purl.org/dc/dcmitype/StillImage" />
        <dc:title />
      </cc:Work>
    </rdf:RDF>
  </metadata>
  <g
     inkscape:label="Ebene 1"
     inkscape:groupmode="layer"
     id="layer1"
     transform="translate(0,-284.29998)">
    <g
       id="g4541"
       transform="matrix(0.96076488,0,0,0.96076488,0.04319209,11.437866)">
      <g
         transform="matrix(0.44550169,0,0,0.44550169,3.2299395,162.06438)"
         id="g4495">
        <path
           inkscape:connector-curvature="0"
           style="fill:#ffffff;stroke-width:0.08990549"
           d="m 20.705892,288.55084 c 0,7.03771 -5.704503,12.74275 -12.7422148,12.74275 -7.03771198,0 -12.742754,-5.70504 -12.742754,-12.74275 0,-7.03727 5.70513302,-12.74213 12.742754,-12.74213 7.0377118,0 12.7422148,5.70477 12.7422148,12.74213 z"
           id="path2" />
        <path
           inkscape:connector-curvature="0"
           style="fill:#e95420;stroke-width:0.08990549"
           d="m 1.3503192,288.55084 c 0,0.9048 -0.73353798,1.63852 -1.63897698,1.63852 -0.90435902,0 -1.63789802,-0.73363 -1.63789802,-1.63852 0,-0.90445 0.733539,-1.63799 1.63789802,-1.63799 0.905439,0 1.63897698,0.73354 1.63897698,1.63799 z m 9.3208618,7.96616 c 0.452494,0.78299 1.454042,1.05153 2.237658,0.59967 0.783526,-0.45249 1.051984,-1.45458 0.59958,-2.2382 -0.452405,-0.78352 -1.454042,-1.05144 -2.237568,-0.59904 -0.783617,0.4525 -1.052074,1.45404 -0.59967,2.23757 z m 2.837148,-14.29335 c 0.452404,-0.78371 0.184486,-1.78552 -0.59958,-2.23748 -0.783077,-0.45241 -1.785074,-0.18395 -2.237658,0.5994 -0.452404,0.78353 -0.183946,1.78525 0.59967,2.23766 0.783616,0.4524 1.785703,0.18394 2.237568,-0.59958 z m -5.5446518,1.65543 c 2.4412038,0 4.4443878,1.87129 4.6535988,4.25828 l 2.370987,-0.0374 c -0.112562,-1.77357 -0.881883,-3.36867 -2.067377,-4.54481 -0.62754,0.24211 -1.355685,0.20921 -1.983854,-0.15374 -0.62862,-0.36295 -1.0212368,-0.97736 -1.1250778,-1.64302 -0.58924,-0.16004 -1.209049,-0.24571 -1.848277,-0.24571 -1.121211,0 -2.181017,0.26216 -3.122148,0.7285 l 1.153668,2.07169 c 0.597871,-0.27781 1.265599,-0.43379 1.96848,-0.43379 z m -4.672298,4.67176 c 0,-1.58027 0.785234,-2.97777 1.986641,-3.82279 l -1.21732,-2.03492 c -1.410078,0.94167 -2.460443,2.37809 -2.903587,4.0622 0.524418,0.42229 0.860395,1.06961 0.860395,1.79559 0,0.72644 -0.336067,1.37376 -0.860395,1.79614 0.443144,1.68402 1.493509,3.12044 2.903587,4.06265 l 1.21732,-2.03492 c -1.201407,-0.84566 -1.986641,-2.24261 -1.986641,-3.82395 z m 4.672298,4.67265 c -0.702791,0 -1.370519,-0.15589 -1.96848,-0.43424 l -1.153668,2.07169 c 0.941131,0.4667 2.000847,0.7286 3.122148,0.7286 0.639138,0 1.259037,-0.0851 1.848277,-0.24536 0.103751,-0.66611 0.4963678,-1.28052 1.1250778,-1.64284 0.628169,-0.36295 1.356314,-0.39594 1.983854,-0.15383 1.185584,-1.17668 1.954815,-2.77178 2.067377,-4.54535 l -2.370987,-0.0368 c -0.2093,2.38636 -2.212395,4.2581 -4.6535988,4.2581 z"
           id="path4" />
      </g>
      <g
         aria-label="Ubucon"
         style="font-style:normal;font-weight:normal;font-size:6.47819519px;line-height:4.04887199px;font-family:sans-serif;letter-spacing:0px;word-spacing:0px;fill:#000000;fill-opacity:1;stroke:none;stroke-width:0.16195488px;stroke-linecap:butt;stroke-linejoin:miter;stroke-opacity:1"
         id="text4499">
        <path
           d="m 17.875665,291.24256 q -0.459952,0 -0.79034,-0.12957 -0.330388,-0.13604 -0.550647,-0.37573 -0.21378,-0.23969 -0.317431,-0.5636 -0.103651,-0.32391 -0.103651,-0.71261 V 286.656 h 0.82273 v 2.72732 q 0,0.30447 0.06478,0.52473 0.07126,0.21378 0.194346,0.34982 0.129564,0.13605 0.297997,0.20083 0.174911,0.0648 0.388692,0.0648 0.21378,0 0.388692,-0.0648 0.174911,-0.0648 0.297997,-0.20083 0.129564,-0.13604 0.194345,-0.34982 0.07126,-0.22026 0.07126,-0.52473 V 286.656 h 0.82273 v 2.80505 q 0,0.3887 -0.110129,0.71261 -0.103651,0.32391 -0.32391,0.5636 -0.21378,0.23969 -0.550646,0.37573 -0.336866,0.12957 -0.796818,0.12957 z"
           style="font-style:normal;font-variant:normal;font-weight:600;font-stretch:normal;font-family:ubuntu;-inkscape-font-specification:'ubuntu Semi-Bold';fill:#ffffff;stroke-width:0.16195488px"
           id="path4532" />
        <path
           d="m 22.910032,289.44162 q 0,-0.49882 -0.200824,-0.79034 -0.194346,-0.29152 -0.621906,-0.29152 -0.194346,0 -0.369258,0.0583 -0.168433,0.0583 -0.272084,0.12956 v 1.94994 q 0.08422,0.0194 0.213781,0.0389 0.136042,0.0129 0.323909,0.0129 0.43404,0 0.680211,-0.29152 0.246171,-0.29799 0.246171,-0.81625 z m 0.803297,0.013 q 0,0.40812 -0.123086,0.73851 -0.116608,0.32391 -0.343344,0.55713 -0.220259,0.23321 -0.537691,0.3563 -0.317431,0.12308 -0.719079,0.12308 -0.388692,0 -0.744993,-0.0583 -0.349822,-0.0583 -0.583037,-0.12957 v -4.79386 l 0.783861,-0.12956 v 1.75559 q 0.136042,-0.0713 0.330388,-0.12957 0.200824,-0.0583 0.440518,-0.0583 0.3563,0 0.634863,0.12956 0.28504,0.12309 0.472908,0.3563 0.187868,0.23322 0.28504,0.56361 0.103652,0.32391 0.103652,0.71908 z"
           style="font-style:normal;font-variant:normal;font-weight:600;font-stretch:normal;font-family:ubuntu;-inkscape-font-specification:'ubuntu Semi-Bold';fill:#ffffff;stroke-width:0.16195488px"
           id="path4534" />
        <path
           d="m 27.300326,291.04173 q -0.226737,0.0583 -0.589516,0.11661 -0.362779,0.0648 -0.796818,0.0648 -0.408126,0 -0.686689,-0.1166 -0.272084,-0.11661 -0.440517,-0.32391 -0.161955,-0.20731 -0.233215,-0.49235 -0.07126,-0.29151 -0.07126,-0.63486 v -1.89811 h 0.783861 v 1.77503 q 0,0.54416 0.155477,0.77738 0.161955,0.23321 0.557125,0.23321 0.14252,0 0.297997,-0.0129 0.161955,-0.013 0.239693,-0.0324 v -2.74028 h 0.783862 z"
           style="font-style:normal;font-variant:normal;font-weight:600;font-stretch:normal;font-family:ubuntu;-inkscape-font-specification:'ubuntu Semi-Bold';fill:#ffffff;stroke-width:0.16195488px"
           id="path4536" />
        <path
           d="m 28.116477,289.45458 q 0,-0.37574 0.116608,-0.69965 0.116607,-0.33039 0.330388,-0.57008 0.220258,-0.23969 0.531212,-0.37573 0.310953,-0.13605 0.699645,-0.13605 0.479386,0 0.906947,0.17491 l -0.168433,0.64135 q -0.136042,-0.0583 -0.310953,-0.0972 -0.168433,-0.0389 -0.362779,-0.0389 -0.459952,0 -0.699645,0.29152 -0.239694,0.28504 -0.239694,0.80978 0,0.5053 0.226737,0.80329 0.226737,0.29152 0.764427,0.29152 0.200824,0 0.39517,-0.0389 0.194346,-0.0389 0.336866,-0.0972 l 0.11013,0.64782 q -0.129564,0.0648 -0.39517,0.11661 -0.259128,0.0518 -0.53769,0.0518 -0.43404,0 -0.757949,-0.12956 -0.317432,-0.13604 -0.531212,-0.36926 -0.207303,-0.23969 -0.310954,-0.5636 -0.103651,-0.33039 -0.103651,-0.7126 z"
           style="font-style:normal;font-variant:normal;font-weight:600;font-stretch:normal;font-family:ubuntu;-inkscape-font-specification:'ubuntu Semi-Bold';fill:#ffffff;stroke-width:0.16195488px"
           id="path4538" />
        <path
           d="m 34.354573,289.4481 q 0,0.40165 -0.116607,0.73203 -0.116608,0.33039 -0.330388,0.56361 -0.213781,0.23321 -0.518256,0.36278 -0.297997,0.12956 -0.660776,0.12956 -0.362779,0 -0.660776,-0.12956 -0.297997,-0.12957 -0.511777,-0.36278 -0.213781,-0.23322 -0.336866,-0.56361 -0.116608,-0.33038 -0.116608,-0.73203 0,-0.40165 0.116608,-0.72556 0.123085,-0.33039 0.336866,-0.5636 0.220259,-0.23322 0.518256,-0.3563 0.297997,-0.12957 0.654297,-0.12957 0.356301,0 0.654298,0.12957 0.304475,0.12308 0.518256,0.3563 0.21378,0.23321 0.330388,0.5636 0.123085,0.32391 0.123085,0.72556 z m -0.803296,0 q 0,-0.5053 -0.220259,-0.79682 -0.21378,-0.298 -0.602472,-0.298 -0.388691,0 -0.60895,0.298 -0.213781,0.29152 -0.213781,0.79682 0,0.51178 0.213781,0.80977 0.220259,0.298 0.60895,0.298 0.388692,0 0.602472,-0.298 0.220259,-0.29799 0.220259,-0.80977 z"
           style="font-style:normal;font-variant:normal;font-weight:600;font-stretch:normal;font-family:ubuntu;-inkscape-font-specification:'ubuntu Semi-Bold';fill:#ffffff;stroke-width:0.16195488px"
           id="path4540" />
        <path
           d="m 35.162122,287.86742 q 0.226736,-0.0648 0.589515,-0.12309 0.362779,-0.0583 0.803297,-0.0583 0.414604,0 0.693166,0.11661 0.278563,0.11013 0.440518,0.31743 0.168433,0.20082 0.233215,0.49234 0.07126,0.28504 0.07126,0.62839 v 1.90459 h -0.783862 v -1.78151 q 0,-0.27208 -0.03887,-0.45995 -0.03239,-0.19435 -0.116607,-0.31095 -0.07774,-0.12309 -0.220259,-0.17491 -0.136042,-0.0583 -0.336866,-0.0583 -0.148999,0 -0.310954,0.0194 -0.161954,0.0194 -0.239693,0.0324 v 2.7338 h -0.783861 z"
           style="font-style:normal;font-variant:normal;font-weight:600;font-stretch:normal;font-family:ubuntu;-inkscape-font-specification:'ubuntu Semi-Bold';fill:#ffffff;stroke-width:0.16195488px"
           id="path4542" />
      </g>
      <g
         aria-label="Deutschland"
         style="font-style:normal;font-variant:normal;font-weight:normal;font-stretch:normal;font-size:4.63770771px;line-height:2.89856744px;font-family:ubuntu;-inkscape-font-specification:ubuntu;letter-spacing:0px;word-spacing:0px;fill:#000000;fill-opacity:1;stroke:none;stroke-width:0.11594269px;stroke-linecap:butt;stroke-linejoin:miter;stroke-opacity:1"
         id="text4507">
        <path
           d="m 18.682885,294.13074 q 0,0.41275 -0.129856,0.71884 -0.129855,0.30609 -0.366379,0.51015 -0.231885,0.20406 -0.556525,0.30609 -0.324639,0.10203 -0.714207,0.10203 -0.194783,0 -0.408118,-0.0232 -0.213334,-0.0186 -0.375654,-0.0603 v -3.09799 q 0.16232,-0.0464 0.375654,-0.0649 0.213335,-0.0232 0.408118,-0.0232 0.389568,0 0.714207,0.10203 0.32464,0.10203 0.556525,0.30609 0.236524,0.20406 0.366379,0.51015 0.129856,0.30609 0.129856,0.71421 z m -2.235375,1.33102 q 0.02783,0.005 0.139131,0.0185 0.115943,0.0139 0.366379,0.0139 0.347828,0 0.60754,-0.0927 0.259711,-0.0974 0.435944,-0.27363 0.176233,-0.17623 0.26435,-0.42667 0.08812,-0.25507 0.08812,-0.57043 0,-0.31537 -0.08812,-0.5658 -0.08812,-0.25044 -0.26435,-0.42667 -0.176233,-0.17624 -0.435944,-0.26899 -0.259712,-0.0974 -0.60754,-0.0974 -0.250436,0 -0.366379,0.0139 -0.111305,0.0139 -0.139131,0.0186 z"
           style="font-style:normal;font-variant:normal;font-weight:300;font-stretch:normal;font-family:ubuntu;-inkscape-font-specification:'ubuntu Light';fill:#ffffff;stroke-width:0.11594269px"
           id="path4509" />
        <path
           d="m 19.221656,294.53885 q 0,-0.31536 0.08812,-0.54725 0.09275,-0.23652 0.236523,-0.3942 0.148406,-0.15768 0.333915,-0.23189 0.190146,-0.0788 0.389567,-0.0788 0.440582,0 0.700294,0.28754 0.264349,0.28754 0.264349,0.8858 0,0.0371 -0.0046,0.0742 0,0.0371 -0.0046,0.0696 h -1.683488 q 0.01391,0.44058 0.217972,0.67711 0.204059,0.23652 0.649279,0.23652 0.245799,0 0.389568,-0.0464 0.143769,-0.0464 0.208697,-0.0788 l 0.05565,0.25971 q -0.06493,0.0371 -0.245798,0.0881 -0.176233,0.051 -0.417394,0.051 -0.315364,0 -0.537974,-0.0928 -0.22261,-0.0928 -0.366379,-0.25971 -0.143769,-0.16696 -0.208697,-0.39421 -0.06493,-0.23188 -0.06493,-0.50551 z m 1.702039,-0.19014 q -0.0093,-0.37566 -0.176233,-0.58435 -0.166957,-0.2087 -0.473046,-0.2087 -0.16232,0 -0.292176,0.0649 -0.125218,0.0649 -0.22261,0.17623 -0.09275,0.10667 -0.148406,0.25044 -0.05101,0.14377 -0.06029,0.30145 z"
           style="font-style:normal;font-variant:normal;font-weight:300;font-stretch:normal;font-family:ubuntu;-inkscape-font-specification:'ubuntu Light';fill:#ffffff;stroke-width:0.11594269px"
           id="path4511" />
        <path
           d="m 23.751899,295.65654 q -0.134493,0.0371 -0.361741,0.0835 -0.227247,0.0464 -0.556525,0.0464 -0.268987,0 -0.449857,-0.0788 -0.180871,-0.0788 -0.292176,-0.22261 -0.111305,-0.14377 -0.16232,-0.34783 -0.04638,-0.20406 -0.04638,-0.44986 v -1.34493 h 0.301451 v 1.24754 q 0,0.25507 0.0371,0.43131 0.0371,0.17623 0.12058,0.28753 0.08348,0.10667 0.213335,0.15769 0.134493,0.0464 0.324639,0.0464 0.213335,0 0.371017,-0.0232 0.157682,-0.0232 0.199421,-0.0417 v -2.10552 h 0.301451 z"
           style="font-style:normal;font-variant:normal;font-weight:300;font-stretch:normal;font-family:ubuntu;-inkscape-font-specification:'ubuntu Light';fill:#ffffff;stroke-width:0.11594269px"
           id="path4513" />
        <path
           d="m 24.829515,293.34233 h 0.955368 v 0.25507 h -0.955368 v 1.27537 q 0,0.20406 0.03246,0.33391 0.0371,0.12522 0.102029,0.19479 0.06493,0.0696 0.157682,0.0927 0.09276,0.0232 0.20406,0.0232 0.190146,0 0.306088,-0.0417 0.115943,-0.0464 0.180871,-0.0835 l 0.0742,0.25044 q -0.06493,0.0417 -0.227247,0.0974 -0.16232,0.051 -0.352466,0.051 -0.22261,0 -0.375655,-0.0557 -0.148406,-0.0603 -0.24116,-0.17623 -0.08812,-0.12058 -0.125218,-0.29681 -0.0371,-0.17624 -0.0371,-0.4174 v -2.20755 l 0.301451,-0.0556 z"
           style="font-style:normal;font-variant:normal;font-weight:300;font-stretch:normal;font-family:ubuntu;-inkscape-font-specification:'ubuntu Light';fill:#ffffff;stroke-width:0.11594269px"
           id="path4515" />
        <path
           d="m 26.8317,295.52669 q 0.259712,0 0.426669,-0.0835 0.171596,-0.0881 0.171596,-0.29218 0,-0.0974 -0.03246,-0.16696 -0.02783,-0.0696 -0.09739,-0.12521 -0.06957,-0.0557 -0.185509,-0.10667 -0.111305,-0.051 -0.278262,-0.12058 -0.134494,-0.0557 -0.255074,-0.11131 -0.12058,-0.0603 -0.213335,-0.13449 -0.09275,-0.0788 -0.148406,-0.18551 -0.05565,-0.10667 -0.05565,-0.25971 0,-0.29218 0.217973,-0.47305 0.22261,-0.18087 0.607539,-0.18087 0.245799,0 0.403481,0.0417 0.16232,0.0417 0.227248,0.0742 l -0.06957,0.26898 q -0.05565,-0.0278 -0.190146,-0.0742 -0.129856,-0.0464 -0.38493,-0.0464 -0.102029,0 -0.194784,0.0232 -0.08812,0.0186 -0.157682,0.0649 -0.06957,0.0417 -0.111305,0.1113 -0.04174,0.0649 -0.04174,0.16232 0,0.0974 0.0371,0.16696 0.0371,0.0696 0.106667,0.12522 0.0742,0.051 0.176233,0.0974 0.106667,0.0464 0.241161,0.10203 0.139131,0.0557 0.264349,0.11594 0.129856,0.0557 0.227248,0.13913 0.09739,0.0788 0.157682,0.19479 0.06029,0.1113 0.06029,0.2829 0,0.32464 -0.245799,0.4916 -0.24116,0.16695 -0.663192,0.16695 -0.315364,0 -0.482321,-0.0556 -0.166958,-0.051 -0.22261,-0.0788 l 0.07884,-0.27363 q 0.01391,0.009 0.06029,0.0325 0.04638,0.0186 0.125218,0.0464 0.07884,0.0232 0.185508,0.0417 0.111305,0.0185 0.255074,0.0185 z"
           style="font-style:normal;font-variant:normal;font-weight:300;font-stretch:normal;font-family:ubuntu;-inkscape-font-specification:'ubuntu Light';fill:#ffffff;stroke-width:0.11594269px"
           id="path4517" />
        <path
           d="m 29.316279,295.79104 q -0.278262,0 -0.491597,-0.0881 -0.213334,-0.0881 -0.357103,-0.25044 -0.139132,-0.16695 -0.213335,-0.3942 -0.0742,-0.23189 -0.0742,-0.51015 0,-0.2829 0.0742,-0.51479 0.07884,-0.23188 0.22261,-0.39884 0.143769,-0.16696 0.347828,-0.25507 0.204059,-0.0928 0.459133,-0.0928 0.194784,0 0.361741,0.0325 0.171596,0.0325 0.26435,0.0835 l -0.07884,0.25971 q -0.09275,-0.0464 -0.208697,-0.0742 -0.115943,-0.0278 -0.310727,-0.0278 -0.398842,0 -0.607539,0.25971 -0.204059,0.25507 -0.204059,0.72812 0,0.21333 0.04638,0.39421 0.04638,0.17623 0.148406,0.30608 0.106668,0.12522 0.268987,0.19943 0.166958,0.0696 0.403481,0.0696 0.194784,0 0.324639,-0.0417 0.134494,-0.0464 0.194784,-0.0788 l 0.06493,0.25971 q -0.08348,0.0464 -0.264349,0.0881 -0.176233,0.0464 -0.371017,0.0464 z"
           style="font-style:normal;font-variant:normal;font-weight:300;font-stretch:normal;font-family:ubuntu;-inkscape-font-specification:'ubuntu Light';fill:#ffffff;stroke-width:0.11594269px"
           id="path4519" />
        <path
           d="m 30.461503,295.74002 v -3.54321 l 0.301451,-0.0557 v 1.27073 q 0.148407,-0.0557 0.301451,-0.0835 0.153044,-0.0325 0.306089,-0.0325 0.278262,0 0.463771,0.0788 0.185508,0.0788 0.296813,0.22725 0.111305,0.14377 0.153044,0.34783 0.04638,0.20405 0.04638,0.44985 v 1.3403 h -0.301451 v -1.2429 q 0,-0.25508 -0.0371,-0.43131 -0.03246,-0.17623 -0.115943,-0.28754 -0.07884,-0.1113 -0.213335,-0.15768 -0.134493,-0.051 -0.338552,-0.051 -0.07884,0 -0.171595,0.0139 -0.08812,0.0139 -0.166958,0.0325 -0.07884,0.0139 -0.143769,0.0325 -0.06029,0.0186 -0.07884,0.0278 v 2.06378 z"
           style="font-style:normal;font-variant:normal;font-weight:300;font-stretch:normal;font-family:ubuntu;-inkscape-font-specification:'ubuntu Light';fill:#ffffff;stroke-width:0.11594269px"
           id="path4521" />
        <path
           d="m 33.704928,295.78176 q -0.153044,-0.005 -0.268987,-0.0417 -0.111305,-0.0325 -0.190146,-0.10203 -0.0742,-0.0742 -0.115943,-0.18551 -0.0371,-0.11594 -0.0371,-0.28754 v -2.96813 l 0.301451,-0.0557 v 3.01451 q 0,0.1113 0.01855,0.18087 0.02319,0.0649 0.06493,0.10667 0.04174,0.0371 0.106668,0.0556 0.06957,0.0186 0.162319,0.0325 z"
           style="font-style:normal;font-variant:normal;font-weight:300;font-stretch:normal;font-family:ubuntu;-inkscape-font-specification:'ubuntu Light';fill:#ffffff;stroke-width:0.11594269px"
           id="path4523" />
        <path
           d="m 35.039936,295.52205 q 0.176233,0 0.306089,-0.009 0.134494,-0.0139 0.227248,-0.0325 v -0.84406 q -0.05101,-0.0232 -0.16232,-0.0464 -0.111305,-0.0278 -0.306089,-0.0278 -0.111305,0 -0.231885,0.0185 -0.120581,0.0139 -0.22261,0.0696 -0.10203,0.051 -0.166958,0.14377 -0.06493,0.0928 -0.06493,0.2458 0,0.13449 0.04174,0.22724 0.04638,0.0928 0.125218,0.14841 0.08348,0.0556 0.194784,0.0835 0.115942,0.0232 0.259711,0.0232 z m -0.02783,-2.23538 q 0.236523,0 0.398843,0.0696 0.166957,0.0649 0.268987,0.18551 0.10203,0.11594 0.148407,0.27826 0.04638,0.16232 0.04638,0.35247 v 1.51189 q -0.04638,0.0139 -0.134494,0.0325 -0.08812,0.0139 -0.204059,0.0325 -0.115943,0.0186 -0.259712,0.0278 -0.139131,0.0139 -0.287537,0.0139 -0.190146,0 -0.352466,-0.0417 -0.157682,-0.0417 -0.278263,-0.12986 -0.115942,-0.0928 -0.185508,-0.23189 -0.06493,-0.14376 -0.06493,-0.34782 0,-0.19479 0.0742,-0.33392 0.0742,-0.13913 0.208697,-0.22725 0.134494,-0.0928 0.320002,-0.13449 0.185508,-0.0417 0.403481,-0.0417 0.06493,0 0.134493,0.009 0.0742,0.005 0.139131,0.0186 0.06957,0.009 0.115943,0.0232 0.05101,0.009 0.06957,0.0186 v -0.14841 q 0,-0.12522 -0.01855,-0.24116 -0.01855,-0.12058 -0.08348,-0.21334 -0.06029,-0.0974 -0.176233,-0.15304 -0.111305,-0.0603 -0.296813,-0.0603 -0.264349,0 -0.394205,0.0371 -0.129856,0.0371 -0.190146,0.0603 l -0.04174,-0.26435 q 0.07884,-0.0371 0.241161,-0.0696 0.166958,-0.0325 0.398843,-0.0325 z"
           style="font-style:normal;font-variant:normal;font-weight:300;font-stretch:normal;font-family:ubuntu;-inkscape-font-specification:'ubuntu Light';fill:#ffffff;stroke-width:0.11594269px"
           id="path4525" />
        <path
           d="m 36.648133,293.4258 q 0.134494,-0.0371 0.361742,-0.0835 0.227247,-0.0464 0.556524,-0.0464 0.273625,0 0.454496,0.0788 0.185508,0.0788 0.292175,0.22725 0.111305,0.14377 0.157682,0.34783 0.04638,0.20405 0.04638,0.44985 v 1.3403 h -0.301451 v -1.2429 q 0,-0.25508 -0.0371,-0.43131 -0.03246,-0.17623 -0.115943,-0.28754 -0.07884,-0.1113 -0.213334,-0.15768 -0.129856,-0.051 -0.329278,-0.051 -0.213334,0 -0.371016,0.0232 -0.153045,0.0232 -0.199422,0.0417 v 2.10552 h -0.301451 z"
           style="font-style:normal;font-variant:normal;font-weight:300;font-stretch:normal;font-family:ubuntu;-inkscape-font-specification:'ubuntu Light';fill:#ffffff;stroke-width:0.11594269px"
           id="path4527" />
        <path
           d="m 41.190116,295.66582 q -0.134493,0.0464 -0.34319,0.0881 -0.208697,0.0417 -0.528699,0.0417 -0.264349,0 -0.482321,-0.0835 -0.213335,-0.0881 -0.371017,-0.25043 -0.153044,-0.16232 -0.241161,-0.39421 -0.08348,-0.23188 -0.08348,-0.52406 0,-0.27362 0.06956,-0.50087 0.0742,-0.23189 0.213335,-0.39884 0.139131,-0.16696 0.338552,-0.25971 0.20406,-0.0928 0.463771,-0.0928 0.236523,0 0.408119,0.0696 0.176232,0.0649 0.255073,0.12521 v -1.28928 l 0.301451,-0.0557 z m -0.301451,-1.88755 q -0.04174,-0.0325 -0.106667,-0.0696 -0.06029,-0.0371 -0.143769,-0.0696 -0.08348,-0.0325 -0.18087,-0.051 -0.09739,-0.0232 -0.20406,-0.0232 -0.222609,0 -0.375654,0.0788 -0.148406,0.0788 -0.241161,0.21333 -0.09275,0.12986 -0.134493,0.31073 -0.04174,0.17623 -0.04174,0.37565 0,0.47305 0.236524,0.72812 0.236523,0.25044 0.62609,0.25044 0.22261,0 0.357104,-0.0186 0.139131,-0.0232 0.208696,-0.0464 z"
           style="font-style:normal;font-variant:normal;font-weight:300;font-stretch:normal;font-family:ubuntu;-inkscape-font-specification:'ubuntu Light';fill:#ffffff;stroke-width:0.11594269px"
           id="path4529" />
      </g>
    </g>
  </g>
</svg>
