<?xml version="1.0" encoding="UTF-8" standalone="no"?>
<!-- Created with Inkscape (http://www.inkscape.org/) -->

<svg
   xmlns:dc="http://purl.org/dc/elements/1.1/"
   xmlns:cc="http://creativecommons.org/ns#"
   xmlns:rdf="http://www.w3.org/1999/02/22-rdf-syntax-ns#"
   xmlns:svg="http://www.w3.org/2000/svg"
   xmlns="http://www.w3.org/2000/svg"
   xmlns:sodipodi="http://sodipodi.sourceforge.net/DTD/sodipodi-0.dtd"
   xmlns:inkscape="http://www.inkscape.org/namespaces/inkscape"
   width="184"
   height="48"
   viewBox="0 0 48.683332 12.7"
   version="1.1"
   id="svg8"
   inkscape:version="0.92.1 r"
   sodipodi:docname="ubucon_de_logo.svg">
  <defs
     id="defs2" />
  <sodipodi:namedview
     id="base"
     pagecolor="#e95420"
     bordercolor="#666666"
     borderopacity="1.0"
     inkscape:pageopacity="0"
     inkscape:pageshadow="2"
     inkscape:zoom="2.8"
     inkscape:cx="63.754315"
     inkscape:cy="30.963179"
     inkscape:document-units="mm"
     inkscape:current-layer="g4541"
     showgrid="false"
     units="px"
     inkscape:window-width="1619"
     inkscape:window-height="986"
     inkscape:window-x="61"
     inkscape:window-y="27"
     inkscape:window-maximized="1" />
  <metadata
     id="metadata5">
    <rdf:RDF>
      <cc:Work
         rdf:about="">
        <dc:format>image/svg+xml</dc:format>
        <dc:type
           rdf:resource="http://purl.org/dc/dcmitype/StillImage" />
        <dc:title />
      </cc:Work>
    </rdf:RDF>
  </metadata>
  <g
     inkscape:label="Ebene 1"
     inkscape:groupmode="layer"
     id="layer1"
     transform="translate(0,-284.29998)">
    <g
       id="g4541"
       transform="matrix(0.96076488,0,0,0.96076488,0.04319209,11.437866)">
      <g
         transform="matrix(0.44550169,0,0,0.44550169,3.2299395,162.06438)"
         id="g4495">
        <path
           inkscape:connector-curvature="0"
           style="fill:#ffffff;stroke-width:0.08990549"
           d="m 20.705892,288.55084 c 0,7.03771 -5.704503,12.74275 -12.7422148,12.74275 -7.03771198,0 -12.742754,-5.70504 -12.742754,-12.74275 0,-7.03727 5.70513302,-12.74213 12.742754,-12.74213 7.0377118,0 12.7422148,5.70477 12.7422148,12.74213 z"
           id="path2" />
        <path
           inkscape:connector-curvature="0"
           style="fill:#e95420;stroke-width:0.08990549"
           d="m 1.3503192,288.55084 c 0,0.9048 -0.73353798,1.63852 -1.63897698,1.63852 -0.90435902,0 -1.63789802,-0.73363 -1.63789802,-1.63852 0,-0.90445 0.733539,-1.63799 1.63789802,-1.63799 0.905439,0 1.63897698,0.73354 1.63897698,1.63799 z m 9.3208618,7.96616 c 0.452494,0.78299 1.454042,1.05153 2.237658,0.59967 0.783526,-0.45249 1.051984,-1.45458 0.59958,-2.2382 -0.452405,-0.78352 -1.454042,-1.05144 -2.237568,-0.59904 -0.783617,0.4525 -1.052074,1.45404 -0.59967,2.23757 z m 2.837148,-14.29335 c 0.452404,-0.78371 0.184486,-1.78552 -0.59958,-2.23748 -0.783077,-0.45241 -1.785074,-0.18395 -2.237658,0.5994 -0.452404,0.78353 -0.183946,1.78525 0.59967,2.23766 0.783616,0.4524 1.785703,0.18394 2.237568,-0.59958 z m -5.5446518,1.65543 c 2.4412038,0 4.4443878,1.87129 4.6535988,4.25828 l 2.370987,-0.0374 c -0.112562,-1.77357 -0.881883,-3.36867 -2.067377,-4.54481 -0.62754,0.24211 -1.355685,0.20921 -1.983854,-0.15374 -0.62862,-0.36295 -1.0212368,-0.97736 -1.1250778,-1.64302 -0.58924,-0.16004 -1.209049,-0.24571 -1.848277,-0.24571 -1.121211,0 -2.181017,0.26216 -3.122148,0.7285 l 1.153668,2.07169 c 0.597871,-0.27781 1.265599,-0.43379 1.96848,-0.43379 z m -4.672298,4.67176 c 0,-1.58027 0.785234,-2.97777 1.986641,-3.82279 l -1.21732,-2.03492 c -1.410078,0.94167 -2.460443,2.37809 -2.903587,4.0622 0.524418,0.42229 0.860395,1.06961 0.860395,1.79559 0,0.72644 -0.336067,1.37376 -0.860395,1.79614 0.443144,1.68402 1.493509,3.12044 2.903587,4.06265 l 1.21732,-2.03492 c -1.201407,-0.84566 -1.986641,-2.24261 -1.986641,-3.82395 z m 4.672298,4.67265 c -0.702791,0 -1.370519,-0.15589 -1.96848,-0.43424 l -1.153668,2.07169 c 0.941131,0.4667 2.000847,0.7286 3.122148,0.7286 0.639138,0 1.259037,-0.0851 1.848277,-0.24536 0.103751,-0.66611 0.4963678,-1.28052 1.1250778,-1.64284 0.628169,-0.36295 1.356314,-0.39594 1.983854,-0.15383 1.185584,-1.17668 1.954815,-2.77178 2.067377,-4.54535 l -2.370987,-0.0368 c -0.2093,2.38636 -2.212395,4.2581 -4.6535988,4.2581 z"
           id="path4" />
      </g>
      <text
         id="text4499"
         y="291.14539"
         x="15.608296"
         style="font-style:normal;font-weight:normal;font-size:6.47819519px;line-height:4.04887199px;font-family:sans-serif;letter-spacing:0px;word-spacing:0px;fill:#000000;fill-opacity:1;stroke:none;stroke-width:0.16195488px;stroke-linecap:butt;stroke-linejoin:miter;stroke-opacity:1"
         xml:space="preserve"><tspan
           id="tspan4501"
           style="font-style:normal;font-variant:normal;font-weight:600;font-stretch:normal;font-family:ubuntu;-inkscape-font-specification:'ubuntu Semi-Bold';fill:#ffffff;stroke-width:0.16195488px"
           y="291.14539"
           x="15.608296"
           sodipodi:role="line">Ubucon</tspan></text>
      <text
         id="text4507"
         y="295.74002"
         x="15.714752"
         style="font-style:normal;font-variant:normal;font-weight:normal;font-stretch:normal;font-size:4.63770771px;line-height:2.89856744px;font-family:ubuntu;-inkscape-font-specification:ubuntu;letter-spacing:0px;word-spacing:0px;fill:#000000;fill-opacity:1;stroke:none;stroke-width:0.11594269px;stroke-linecap:butt;stroke-linejoin:miter;stroke-opacity:1"
         xml:space="preserve"><tspan
           style="font-style:normal;font-variant:normal;font-weight:300;font-stretch:normal;font-family:ubuntu;-inkscape-font-specification:'ubuntu Light';fill:#ffffff;stroke-width:0.11594269px"
           y="295.74002"
           x="15.714752"
           id="tspan4505"
           sodipodi:role="line">Deutschland</tspan></text>
    </g>
  </g>
</svg>
